<?xml version="1.0" encoding="UTF-8" standalone="no"?>
<!-- Created with Inkscape (http://www.inkscape.org/) -->

<svg
   width="512"
   height="512"
   viewBox="0 0 135.46666 135.46667"
   version="1.1"
   id="svg1"
   xml:space="preserve"
   inkscape:version="1.4 (e7c3feb100, 2024-10-09)"
   sodipodi:docname="edutools-white.svg"
   xmlns:inkscape="http://www.inkscape.org/namespaces/inkscape"
   xmlns:sodipodi="http://sodipodi.sourceforge.net/DTD/sodipodi-0.dtd"
   xmlns="http://www.w3.org/2000/svg"
   xmlns:svg="http://www.w3.org/2000/svg"><sodipodi:namedview
     id="namedview1"
     pagecolor="#505050"
     bordercolor="#eeeeee"
     borderopacity="1"
     inkscape:showpageshadow="0"
     inkscape:pageopacity="0"
     inkscape:pagecheckerboard="0"
     inkscape:deskcolor="#505050"
     inkscape:document-units="mm"
     inkscape:zoom="0.78394035"
     inkscape:cx="-10.204858"
     inkscape:cy="537.03066"
     inkscape:window-width="2532"
     inkscape:window-height="1367"
     inkscape:window-x="0"
     inkscape:window-y="0"
     inkscape:window-maximized="1"
     inkscape:current-layer="svg1" /><defs
     id="defs1"><inkscape:path-effect
       effect="fillet_chamfer"
       id="path-effect8"
       is_visible="true"
       lpeversion="1"
       nodesatellites_param="F,0,0,1,0,0.052916664,0,1 @ F,0,0,1,0,0.052916664,0,1 @ F,0,0,1,0,0.052916664,0,1 @ F,0,0,1,0,0.052916664,0,1 @ F,0,0,1,0,0.052916664,0,1 @ F,0,0,1,0,0.052916664,0,1 @ F,0,0,1,0,0.052916664,0,1 @ F,0,0,1,0,0.052916664,0,1 @ F,0,0,1,0,0.052916664,0,1 @ F,0,0,1,0,0.052916664,0,1 @ F,0,0,1,0,0.052916664,0,1 @ F,0,0,1,0,0.052916664,0,1 @ F,0,0,1,0,0.052916664,0,1 @ F,0,0,1,0,0.052916664,0,1 @ F,0,0,1,0,0.052916664,0,1 @ F,0,0,1,0,0.052916664,0,1 @ F,0,0,1,0,0.052916664,0,1 @ F,0,0,1,0,0.052916664,0,1 @ F,0,0,1,0,0.052916664,0,1 @ F,0,0,1,0,0.052916664,0,1 @ F,0,0,1,0,0.052916664,0,1 @ F,0,0,1,0,0.052916664,0,1 @ F,0,0,1,0,0.052916664,0,1 @ F,0,0,1,0,0.052916664,0,1 @ F,0,0,1,0,0.052916664,0,1 @ F,0,0,1,0,0.052916664,0,1 @ F,0,0,1,0,0.052916664,0,1 @ F,0,0,1,0,0.052916664,0,1 @ F,0,0,1,0,0.052916664,0,1 @ F,0,0,1,0,0.052916664,0,1 @ F,0,0,1,0,0.052916664,0,1 @ F,0,0,1,0,0.052916664,0,1 @ F,0,0,1,0,0.052916664,0,1 @ F,0,0,1,0,0.052916664,0,1 @ F,0,0,1,0,0.052916664,0,1"
       radius="0.2"
       unit="px"
       method="auto"
       mode="F"
       chamfer_steps="1"
       flexible="false"
       use_knot_distance="true"
       apply_no_radius="true"
       apply_with_radius="true"
       only_selected="false"
       hide_knots="false" /></defs><path
     id="path1-5"
     style="fill:#ffffff;stroke:none;stroke-width:9.43038;stroke-linecap:butt;stroke-linejoin:miter;fill-opacity:1"
     d="M 101.8955,18.094664 C 93.10164,18.20954 84.91762,21.931028 79.028782,27.819678 70.795215,36.053433 67.194271,48.783091 71.366562,61.37857 L 40.671733,92.073399 c -3.191233,3.191063 -4.690359,7.321303 -4.466525,11.124881 0.222765,3.80339 1.957297,7.17925 4.466525,9.68831 2.509039,2.50921 5.884901,4.24285 9.688309,4.46652 3.803559,0.22454 7.933629,-1.276 11.124861,-4.46652 L 92.179751,82.19174 c 12.595459,4.172292 25.325309,0.572063 33.558869,-7.662219 8.97349,-8.9735 12.9134,-23.287635 6.73194,-36.947937 a 4.7156582,4.7156582 0 0 0 -7.62532,-1.390582 l -17.74632,17.746512 -7.478113,-7.478117 0.01883,-0.0094 L 117.3676,28.71275 a 4.7156582,4.7156582 0 0 0 -1.39058,-7.625327 c -3.41507,-1.545081 -6.87451,-2.458419 -10.27764,-2.818056 -1.27618,-0.135026 -2.54719,-0.191391 -3.80358,-0.17495 z M 51.852016,19.26427 50.912671,19.2831 c -1.377569,0.08908 -2.741786,0.390465 -4.05218,0.884111 -0.486509,0.183613 -1.257288,0.53035 -1.73133,0.745997 L 6.4958801,38.493321 c -0.4740437,0.215647 -1.2492655,0.563156 -1.703705,0.819781 -2.7679847,1.566473 -4.44709689,4.413587 -4.75201696,7.275314 -0.05346436,0.51681 -0.05363385,1.360639 0,1.87871 0.30474305,2.861539 1.98385336,5.708652 4.75201696,7.275314 0.4526579,0.256625 1.2296613,0.594869 1.703705,0.810515 L 17.989114,61.793083 A 1.4665813,1.4665813 0 0 1 18.8456,63.12843 v 11.760369 c 0,0.520388 -0.0021,1.369377 0.03689,1.887806 0.204942,2.84282 1.324291,5.491405 2.965443,7.625328 0.317218,0.41344 0.879654,1.043958 1.243205,1.418208 1.845383,1.89564 4.076594,3.360891 6.538591,4.54029 0.468696,0.224554 1.248552,0.570104 1.731505,0.764357 0.124744,0.05348 0.256625,0.1032 0.386719,0.156684 0.484737,0.190694 1.0944,-0.01883 1.381321,-0.460502 0.641562,-0.965899 1.35726,-1.891723 2.164202,-2.772086 0.351078,-0.383158 0.957355,-0.986577 1.326253,-1.35369 l 2.191822,-2.191831 C 39.180454,84.134461 39.065502,83.736162 38.562949,83.600721 37.358238,83.276376 36.22588,82.91301 35.192252,82.504899 34.707517,82.314206 33.937107,81.974004 33.470193,81.740542 32.112219,81.063339 31.006236,80.320205 30.200719,79.594698 29.814,79.24719 29.253701,78.620589 28.966781,78.185755 c -0.310088,-0.466904 -0.500597,-0.915108 -0.598613,-1.399847 -0.106928,-0.51325 -0.09213,-1.366533 -0.09213,-1.887975 v -7.459586 a 0.60640068,0.60640068 0 0 1 0.856486,-0.552459 l 15.99665,7.293675 c 0.474041,0.215628 1.243032,0.56777 1.731329,0.745997 0.08908,0.03559 0.15593,0.0565 0.248603,0.09209 0.491876,0.178152 1.198475,-0.01695 1.565589,-0.386718 L 59.587869,63.736124 a 0.17124655,0.17124655 0 0 0 -0.193368,-0.27623 l -4.724392,2.136597 -0.865749,0.395983 c -1.589656,0.466904 -2.312131,0.466019 -3.011424,0.303856 -0.506132,-0.124669 -0.907821,-0.303856 -0.902472,-0.303856 L 10.345432,47.951371 C 9.8713886,47.735743 9.3707916,47.527762 9.4153446,47.527762 l 0.055253,-0.03691 39.5540974,-18.004211 0.86575,-0.386906 c 0.932057,-0.317208 0.971963,-0.331822 1.01296,-0.340729 0.507902,-0.106967 1.369377,-0.104519 1.87871,0 0.03559,0.0094 0.08418,0.01902 0.119772,0.03691 0.506132,0.124668 0.897124,0.313121 0.902473,0.313121 l 11.981345,5.451839 c 0.474041,0.215646 1.005126,0.0011 1.206497,-0.478844 0.983733,-2.346161 2.212152,-4.579329 3.674559,-6.64909 0.301163,-0.425926 0.17721,-0.935598 -0.304044,-1.151245 L 58.565644,20.91272 c -0.474042,-0.215647 -1.244821,-0.569747 -1.73133,-0.755092 -1.309867,-0.495435 -2.674611,-0.784132 -4.05218,-0.875015 -0.520388,-0.03559 -0.935429,-0.02128 -0.930099,-0.01883 z m 50.052754,8.205583 c 0.89426,-0.0094 1.80136,0.03653 2.71683,0.138039 l -0.009,-0.01883 c 0.14256,0.01507 0.28461,0.111298 0.42361,0.129 l -12.073489,12.064225 -0.05518,0.04595 a 4.7156582,4.7156582 0 0 0 -0.02768,0.03691 c -3.557649,3.629456 -3.557649,9.57673 0,13.206204 a 4.7156582,4.7156582 0 0 0 0.02768,0.03691 l 7.551729,7.551544 a 4.7156582,4.7156582 0 0 0 0.0369,0.03691 c 3.62945,3.55763 9.57674,3.55763 13.2062,0 a 4.7156582,4.7156582 0 0 0 0.0367,-0.03691 l 12.11948,-12.119479 c 0.96947,7.484012 -1.81687,14.378842 -6.77792,19.339728 -6.4919,6.492068 -16.28107,9.383738 -26.394068,4.807253 a 4.7156582,4.7156582 0 0 0 -5.27702,0.966991 L 54.826529,106.23693 c -1.523725,1.52371 -2.689225,1.78425 -3.895535,1.71297 -1.206498,-0.0712 -2.555216,-0.68647 -3.582413,-1.71297 -1.028289,-1.02829 -1.641689,-2.37593 -1.712968,-3.58241 -0.07137,-1.2065 0.189243,-2.37147 1.712968,-3.895534 L 79.931217,66.176351 a 4.7156582,4.7156582 0 0 0 0.966972,-5.277039 C 76.321704,50.786149 79.21409,40.997163 85.705461,34.505265 c 4.260331,-4.260162 9.939926,-6.969858 16.199269,-7.035808 z" /></svg>
